<?xml version="1.0" encoding="UTF-8"?>
<!-- Generated by Pixelmator Pro 3.7 -->
<svg width="1080" height="1080" viewBox="0 0 1080 1080" xmlns="http://www.w3.org/2000/svg">
    <text id="Moscovium" visibility="hidden" xml:space="preserve" x="567.544" y="525" font-family="Orbitron" font-size="64" font-weight="700" fill="#0055ff" letter-spacing="-1.28">Moscovium</text>
    <text id="Dr" visibility="hidden" xml:space="preserve" x="452.456" y="525" font-family="Orbitron" font-size="64" font-weight="700" fill="#1a1a1a" letter-spacing="-1.28">Dr.</text>
    <g id="Group">
        <path id="Path" fill="none" stroke="#000000" stroke-width="7" stroke-linecap="round" stroke-linejoin="round" d="M 410 474 C 423.256866 455.283997 534.047668 397.571899 540 398 C 557.380859 399.25 659.527466 461.858093 667 469 C 677.486084 479.022156 671.49762 594.973328 670 610 C 668.304626 627.010132 558.684326 685.328308 541 691 C 531.9823 693.892151 417.476074 625.610718 411 610 C 406.482971 599.111633 403.964233 482.521301 410 474 Z"/>
        <g id="g1">
            <path id="path1" fill="none" stroke="#000000" stroke-width="7" stroke-linecap="round" stroke-linejoin="round" d="M 519 409 L 535 413 L 609 533 L 638 489 L 633 465 L 612 453"/>
            <path id="path2" fill="none" stroke="#000000" stroke-width="7" stroke-linecap="round" stroke-linejoin="round" d="M 549 402 L 604 497"/>
            <path id="path3" fill="none" stroke="#000000" stroke-width="7" stroke-linecap="round" stroke-linejoin="round" d="M 625 503 L 620 492 L 623 485 L 620 471 L 601 463 L 589 444"/>
            <path id="Oval" fill="none" stroke="#000000" stroke-width="4" stroke-linecap="round" stroke-linejoin="round" d="M 612 447.5 C 612 444.462463 609.537537 442 606.5 442 C 603.462463 442 601 444.462463 601 447.5 C 601 450.537537 603.462463 453 606.5 453 C 609.537537 453 612 450.537537 612 447.5 Z"/>
            <path id="Oval-copy" fill="none" stroke="#000000" stroke-width="4" stroke-linecap="round" stroke-linejoin="round" d="M 591 436.5 C 591 433.462463 588.537537 431 585.5 431 C 582.462463 431 580 433.462463 580 436.5 C 580 439.537537 582.462463 442 585.5 442 C 588.537537 442 591 439.537537 591 436.5 Z"/>
            <path id="Oval-copy-2" fill="none" stroke="#000000" stroke-width="4" stroke-linecap="round" stroke-linejoin="round" d="M 615 502.5 C 615 499.462463 612.537537 497 609.5 497 C 606.462463 497 604 499.462463 604 502.5 C 604 505.537537 606.462463 508 609.5 508 C 612.537537 508 615 505.537537 615 502.5 Z"/>
        </g>
        <g id="Group-copy">
            <path id="path4" fill="none" stroke="#000000" stroke-width="7" stroke-linecap="round" stroke-linejoin="round" d="M 408.701416 494.707458 L 420.202972 482.88739 L 561.138245 479.24762 L 537.682373 432.058411 L 514.42218 424.31488 L 493.491394 436.435181"/>
            <path id="path5" fill="none" stroke="#000000" stroke-width="7" stroke-linecap="round" stroke-linejoin="round" d="M 417.732513 465.255127 L 527.504761 465.471191"/>
            <path id="path6" fill="none" stroke="#000000" stroke-width="7" stroke-linecap="round" stroke-linejoin="round" d="M 543.248901 450.334412 L 531.22644 449.126526 L 526.683533 443.014038 L 513.073181 438.56897 L 496.605652 450.971436 L 474.148468 451.792603"/>
            <path id="path7" fill="none" stroke="#000000" stroke-width="4" stroke-linecap="round" stroke-linejoin="round" d="M 488.737 433.670105 C 486.111206 432.143005 482.744629 433.033691 481.217529 435.659485 C 479.69043 438.285278 480.581085 441.651855 483.206879 443.178955 C 485.832672 444.706055 489.199249 443.815369 490.726349 441.189636 C 492.253448 438.563843 491.362793 435.197205 488.737 433.670105 Z"/>
            <path id="path8" fill="none" stroke="#000000" stroke-width="4" stroke-linecap="round" stroke-linejoin="round" d="M 468.670654 446.293213 C 466.044861 444.766113 462.678284 445.656799 461.151184 448.282532 C 459.624084 450.908325 460.51474 454.274902 463.140533 455.802063 C 465.766327 457.329163 469.132904 456.438477 470.660004 453.812683 C 472.187103 451.18689 471.296448 447.820313 468.670654 446.293213 Z"/>
            <path id="path9" fill="none" stroke="#000000" stroke-width="4" stroke-linecap="round" stroke-linejoin="round" d="M 537.789307 458.727478 C 535.163513 457.200317 531.796936 458.091003 530.269836 460.716797 C 528.742737 463.34259 529.633423 466.709167 532.259216 468.236267 C 534.88501 469.763367 538.251587 468.872742 539.778687 466.246948 C 541.305786 463.621155 540.4151 460.254578 537.789307 458.727478 Z"/>
        </g>
        <g id="Group-copy-2">
            <path id="path10" fill="none" stroke="#000000" stroke-width="7" stroke-linecap="round" stroke-linejoin="round" d="M 429.000519 628.000122 L 425 603 L 490 494 L 441.869843 492.215942 L 424.028564 507.379761 L 421 533"/>
            <path id="path11" fill="none" stroke="#000000" stroke-width="7" stroke-linecap="round" stroke-linejoin="round" d="M 410.999451 607.999695 L 463.475952 519.153015"/>
            <path id="path12" fill="none" stroke="#000000" stroke-width="7" stroke-linecap="round" stroke-linejoin="round" d="M 458.666626 497.848816 L 451.413483 507.512695 L 443.832367 508.238403 L 432.987488 517.586609 L 435.08255 538.095398 L 424.167908 557.739014"/>
            <path id="path13" fill="none" stroke="#000000" stroke-width="4" stroke-linecap="round" stroke-linejoin="round" d="M 416.205627 535.879211 C 413.540375 537.336304 412.561005 540.678162 414.018158 543.343445 C 415.475311 546.008667 418.817169 546.988037 421.482422 545.530884 C 424.147644 544.07373 425.127014 540.731873 423.669861 538.06665 C 422.212708 535.401367 418.87085 534.422058 416.205627 535.879211 Z"/>
            <path id="path14" fill="none" stroke="#000000" stroke-width="4" stroke-linecap="round" stroke-linejoin="round" d="M 416.627808 559.58197 C 413.962555 561.039124 412.983185 564.380981 414.440338 567.046204 C 415.897491 569.711426 419.239349 570.690796 421.904602 569.233643 C 424.569824 567.77655 425.549194 564.434692 424.092041 561.769409 C 422.634888 559.104187 419.29303 558.124817 416.627808 559.58197 Z"/>
            <path id="path15" fill="none" stroke="#000000" stroke-width="4" stroke-linecap="round" stroke-linejoin="round" d="M 463.025024 506.862915 C 460.359772 508.320068 459.380402 511.661926 460.837555 514.327148 C 462.294708 516.992432 465.636566 517.971741 468.301819 516.514648 C 470.967072 515.057495 471.946411 511.715637 470.489258 509.050354 C 469.032104 506.385132 465.690247 505.405762 463.025024 506.862915 Z"/>
        </g>
        <g id="Group-copy-3">
            <path id="path16" fill="none" stroke="#000000" stroke-width="7" stroke-linecap="round" stroke-linejoin="round" d="M 557.992004 678.900757 L 534.158325 670.358643 L 469.972717 560.877136 L 445.215729 602.19043 L 449.90506 625.130859 L 470.894775 640.130859"/>
            <path id="path17" fill="none" stroke="#000000" stroke-width="7" stroke-linecap="round" stroke-linejoin="round" d="M 531.792419 685.035645 L 479.230652 596.23938"/>
            <path id="path18" fill="none" stroke="#000000" stroke-width="7" stroke-linecap="round" stroke-linejoin="round" d="M 458.245697 590.187012 L 463.218231 601.199463 L 460.200775 608.191956 L 463.165863 622.199402 L 482.145844 630.246765 L 494.098419 649.276611"/>
            <path id="path19" fill="none" stroke="#000000" stroke-width="4" stroke-linecap="round" stroke-linejoin="round" d="M 471.107208 645.719238 C 471.09964 648.756836 473.555908 651.225403 476.593475 651.232971 C 479.631012 651.24054 482.099609 648.784302 482.107178 645.746704 C 482.114746 642.709167 479.658478 640.240601 476.620911 640.233032 C 473.583344 640.225464 471.114777 642.681702 471.107208 645.719238 Z"/>
            <path id="path20" fill="none" stroke="#000000" stroke-width="4" stroke-linecap="round" stroke-linejoin="round" d="M 492.079712 656.771606 C 492.072113 659.809204 494.528412 662.27771 497.565979 662.285339 C 500.603516 662.292908 503.072083 659.836609 503.079681 656.799072 C 503.08725 653.761475 500.630951 651.292969 497.593414 651.2854 C 494.555847 651.277771 492.08728 653.73407 492.079712 656.771606 Z"/>
            <path id="path21" fill="none" stroke="#000000" stroke-width="4" stroke-linecap="round" stroke-linejoin="round" d="M 468.244415 590.711914 C 468.236847 593.749512 470.693115 596.218079 473.730682 596.225647 C 476.76825 596.233276 479.236816 593.776978 479.244385 590.73938 C 479.251953 587.701843 476.795685 585.233276 473.758118 585.225708 C 470.720551 585.21814 468.251984 587.674438 468.244415 590.711914 Z"/>
        </g>
        <g id="Group-copy-4">
            <path id="path22" fill="none" stroke="#000000" stroke-width="7" stroke-linecap="round" stroke-linejoin="round" d="M 667.323669 592.150635 L 648.075623 608.598206 L 521.173462 609.957764 L 544.743591 651.959473 L 566.985107 659.278564 L 590.42688 648.50592"/>
            <path id="path23" fill="none" stroke="#000000" stroke-width="7" stroke-linecap="round" stroke-linejoin="round" d="M 659.641235 617.938965 L 556.465881 619.478394"/>
            <path id="path24" fill="none" stroke="#000000" stroke-width="7" stroke-linecap="round" stroke-linejoin="round" d="M 540.793396 634.689331 L 552.821472 635.840515 L 557.393127 641.931519 L 571.024292 646.312256 L 587.433105 633.832214 L 609.886169 632.905029"/>
            <path id="path25" fill="none" stroke="#000000" stroke-width="4" stroke-linecap="round" stroke-linejoin="round" d="M 595.383362 651.09613 C 598.016357 652.61084 601.378662 651.704285 602.893372 649.071289 C 604.408081 646.438354 603.501526 643.07605 600.86853 641.561279 C 598.235596 640.046631 594.87323 640.953186 593.358582 643.586182 C 591.843872 646.219116 592.750427 649.581421 595.383362 651.09613 Z"/>
            <path id="path26" fill="none" stroke="#000000" stroke-width="4" stroke-linecap="round" stroke-linejoin="round" d="M 615.389893 638.378479 C 618.022888 639.893188 621.385193 638.986633 622.899902 636.353638 C 624.414612 633.720703 623.508057 630.358398 620.875061 628.843628 C 618.242126 627.328979 614.879761 628.235474 613.365112 630.868469 C 611.850403 633.501465 612.756958 636.86377 615.389893 638.378479 Z"/>
            <path id="path27" fill="none" stroke="#000000" stroke-width="4" stroke-linecap="round" stroke-linejoin="round" d="M 546.213318 626.27063 C 548.846252 627.785339 552.208618 626.878784 553.723328 624.24585 C 555.237976 621.612854 554.331482 618.250488 551.698486 616.73584 C 549.065552 615.22113 545.703186 616.127686 544.188477 618.76062 C 542.673828 621.393616 543.580322 624.755981 546.213318 626.27063 Z"/>
        </g>
        <g id="Group-copy-5">
            <path id="path28" fill="none" stroke="#000000" stroke-width="7" stroke-linecap="round" stroke-linejoin="round" d="M 653.776978 461.859436 L 656.856201 486.989685 L 587.895386 593.527954 L 635.92749 597.079102 L 654.313843 582.581055 L 658.281677 557.089417"/>
            <path id="path29" fill="none" stroke="#000000" stroke-width="7" stroke-linecap="round" stroke-linejoin="round" d="M 671.031006 482.507751 L 615.325623 569.366455"/>
            <path id="path30" fill="none" stroke="#000000" stroke-width="7" stroke-linecap="round" stroke-linejoin="round" d="M 619.348999 590.833008 L 626.952271 581.442017 L 634.554993 580.995361 L 645.735962 572.051941 L 644.395874 551.480042 L 656.024841 532.250732"/>
            <path id="path31" fill="none" stroke="#000000" stroke-width="4" stroke-linecap="round" stroke-linejoin="round" d="M 663.178589 554.388306 C 665.895569 553.03009 666.99707 549.72644 665.638794 547.00946 C 664.280579 544.29248 660.97699 543.190979 658.259949 544.549255 C 655.542969 545.907471 654.441528 549.211121 655.799744 551.928101 C 657.15802 554.645081 660.461609 555.746521 663.178589 554.388306 Z"/>
            <path id="path32" fill="none" stroke="#000000" stroke-width="4" stroke-linecap="round" stroke-linejoin="round" d="M 663.627563 530.686035 C 666.344543 529.327759 667.446045 526.02417 666.087769 523.30719 C 664.729553 520.59021 661.425903 519.488708 658.708923 520.846985 C 655.991943 522.2052 654.890503 525.508789 656.248718 528.225769 C 657.606995 530.94281 660.910583 532.04425 663.627563 530.686035 Z"/>
            <path id="path33" fill="none" stroke="#000000" stroke-width="4" stroke-linecap="round" stroke-linejoin="round" d="M 615.324707 581.664795 C 618.041687 580.306519 619.143188 577.00293 617.784973 574.28595 C 616.426697 571.56897 613.123108 570.467529 610.406128 571.825745 C 607.689148 573.18396 606.587646 576.48761 607.945862 579.20459 C 609.304138 581.92157 612.607727 583.023071 615.324707 581.664795 Z"/>
        </g>
        <path id="path34" fill="#000000" fill-rule="evenodd" stroke="none" d="M 568 544.5 C 568 528.759888 555.240112 516 539.5 516 C 523.759888 516 511 528.759888 511 544.5 C 511 560.240112 523.759888 573 539.5 573 C 555.240112 573 568 560.240112 568 544.5 Z"/>
    </g>
</svg>
